<?xml version="1.0" encoding="UTF-8"?>
<svg id="Capa_1" data-name="Capa 1" xmlns="http://www.w3.org/2000/svg" viewBox="0 0 100 67.52">
  <defs>
    <style>
      .cls-1 {
        fill: #6bbbb5;
        stroke-width: 0px;
      }
    </style>
  </defs>
  <g id="_7wwgTH" data-name="7wwgTH">
    <g>
      <path class="cls-1" d="m73.17,67.52H25.62c0-1.01.02-2,0-2.99-.05-2.41-.12-4.82-.18-7.24-.26-10.72-.52-21.44-.79-32.17-.17-6.78-.34-13.56-.51-20.35,0-.37.11-.53.46-.64,3.79-1.11,7.58-2.23,11.37-3.35.84-.25,1.69-.51,2.62-.79,0,1.04-.07,2.02.01,2.99.32,3.65,1.49,6.96,4.09,9.63,4.26,4.36,10.39,4.02,14.2-.75,2.56-3.21,3.55-6.92,3.46-10.96,0-.26,0-.52,0-.87,1.01.3,2.01.59,3.01.89,3.63,1.07,7.25,2.15,10.88,3.21.42.12.54.31.53.75-.15,4.8-.28,9.61-.39,14.41-.19,7.74-.36,15.49-.54,23.24-.1,4.26-.19,8.52-.3,12.78-.1,3.97-.22,7.95-.33,11.92,0,.09-.02.18-.04.3Zm-29.4-33.54c-1.41,1.57-2.77,3.09-4.13,4.6-1.57,1.75-3.15,3.5-4.72,5.25-.51.57-.44,1.33.17,1.63.26.13.58.16.87.16,4.11,0,8.22,0,12.33,0,6.18,0,12.37,0,18.55,0,.51,0,.93-.11,1.18-.6.24-.46.04-.84-.22-1.2-2.04-2.8-4.09-5.6-6.13-8.4-1.37-1.89-2.73-3.78-4.11-5.67-.47-.64-.97-1.27-1.49-1.94-3.34,5.01-6.64,9.96-9.96,14.93-.72-.52-1.41-1.02-2.12-1.53.14-.21.24-.37.34-.52.71-1.07,1.43-2.13,2.12-3.2.09-.15.14-.47.05-.57-.87-.98-1.78-1.94-2.72-2.94Zm-5.27-4c0-1.61-1.19-2.82-2.81-2.83-1.55-.01-2.8,1.23-2.81,2.78,0,1.57,1.21,2.82,2.76,2.83,1.62.01,2.85-1.19,2.86-2.78Z"/>
      <path class="cls-1" d="m6.33,19.4c4.95-4.38,9.86-8.71,14.86-13.13.07,1.37.14,2.62.19,3.88.2,4.41.38,8.81.58,13.22.17,3.61.36,7.23.52,10.84.01.24-.12.56-.3.72-.67.65-1.39,1.25-2.13,1.9-4.58-5.82-9.13-11.6-13.72-17.43Z"/>
      <path class="cls-1" d="m92.57,19.4c-4.59,5.84-9.14,11.62-13.72,17.43-.77-.68-1.51-1.31-2.22-1.98-.14-.13-.22-.39-.21-.59.23-5.06.48-10.13.71-15.19.17-3.76.33-7.53.49-11.3.02-.46.05-.92.08-1.51,5.01,4.43,9.91,8.76,14.85,13.13Z"/>
      <path class="cls-1" d="m13.71,42.45c-4.59-5.83-9.13-11.62-13.71-17.45,1.24-1.1,2.46-2.17,3.71-3.28,4.58,5.82,9.13,11.6,13.71,17.43-1.25,1.11-2.46,2.18-3.71,3.29Z"/>
      <path class="cls-1" d="m85.19,42.45c-1.26-1.12-2.45-2.18-3.71-3.29,4.58-5.82,9.13-11.61,13.71-17.43,1.25,1.1,2.46,2.17,3.71,3.27-4.57,5.82-9.12,11.61-13.71,17.45Z"/>
    </g>
  </g>
</svg>